<svg height="512pt" viewBox="0 -45 512 512" width="512pt" xmlns="http://www.w3.org/2000/svg"><path fill="white" d="m448.78125 68.179688h-93.898438l-11.808593-68.179688h-174.148438l-11.808593 68.179688h-93.898438c-34.859375 0-63.21875 28.359374-63.21875 63.222656v289.609375h512v-289.609375c0-34.863282-28.359375-63.222656-63.21875-63.222656zm-96.53125 247.820312h-26.328125v-36.660156h26.328125zm-56.328125-66.660156v33.332031h-79.84375v-33.332031h-86.328125v33.332031h-28.378906v-184.492187h309.257812v184.492187h-28.378906v-33.332031zm-109.84375 66.660156h-26.328125v-36.660156h26.328125zm8.097656-286h123.648438l6.613281 38.179688h-136.875zm287.824219 361.011719h-452v-259.609375c0-18.3125 14.898438-33.222656 33.21875-33.222656h8.152344v214.492187h58.378906v33.328125h86.328125v-33.328125h79.84375v33.328125h86.328125v-33.328125h58.378906v-214.492187h8.152344c18.320312 0 33.21875 14.910156 33.21875 33.222656zm0 0"/></svg>